<?xml version="1.0" encoding="utf-8"?>
<!-- Generator: Adobe Illustrator 25.0.1, SVG Export Plug-In . SVG Version: 6.00 Build 0)  -->
<svg version="1.1" id="Design_here" xmlns="http://www.w3.org/2000/svg" xmlns:xlink="http://www.w3.org/1999/xlink" x="0px"
	 y="0px" viewBox="0 0 24 24" style="enable-background:new 0 0 24 24;" xml:space="preserve">
<path d="M15.9,22.2c-3,0-6.6-1.6-9.6-4.6c-4.8-4.8-6-11-2.8-14.1C4.5,2.6,5.6,2,6.9,1.8l0.8-0.1l2.8,6.5L7.7,9.6
	c0.6,1.2,1.6,2.5,2.9,3.8c1.2,1.2,2.5,2.2,3.8,2.9l1.3-2.6l6.5,0.9l0,0.8c0.1,2.1-0.5,3.8-1.7,5C19.3,21.7,17.7,22.2,15.9,22.2z
	 M6.5,4c-0.6,0.2-1.1,0.5-1.5,1c-2.3,2.3-1,7.5,2.8,11.3c3.8,3.8,9,5.1,11.3,2.8c0.8-0.8,1-1.8,1.1-2.7l-3.4-0.5l-0.6,1.3
	c-0.2,0.5-0.7,0.8-1.2,1c-0.5,0.2-1.1,0.1-1.6-0.2c-1.4-0.8-2.9-1.9-4.2-3.2c-1.4-1.4-2.5-2.9-3.3-4.2c-0.3-0.5-0.3-1-0.1-1.6
	c0.2-0.5,0.5-0.9,1-1.2l1.1-0.6L6.5,4z"/>
</svg>
