<?xml version="1.0" encoding="utf-8"?>
<!-- Generator: Adobe Illustrator 26.0.3, SVG Export Plug-In . SVG Version: 6.00 Build 0)  -->
<svg version="1.1" id="레이어_1" xmlns="http://www.w3.org/2000/svg" xmlns:xlink="http://www.w3.org/1999/xlink" x="0px"
	 y="0px" viewBox="0 0 1745.2 338.7" style="enable-background:new 0 0 1745.2 338.7;" xml:space="preserve">
<style type="text/css">
	.st0{fill:#FFA040;}
</style>
<g id="Project_1">
	<g>
		<path class="st0" d="M0,9.3h177.6c63.8,0,103.7,32.1,103.7,85c0,51.8-39.5,84.7-103,84.7H80.9v91.4H0V9.3z M80.9,64.5v61.9h83.2
			c23.1,0,36.9-10.8,36.9-31s-13.8-31-36.9-31L80.9,64.5z"/>
		<path class="st0" d="M289.8,62.3h78.3v38c16.4-27.2,42.1-42.5,78.3-42.5h3.7v63c-7.2-1.5-14.6-2.3-22-2.2c-25,0-48.5,8.6-60,24.6
			v127.2h-78.3V62.3z"/>
		<path class="st0" d="M448,166.4C448,99.2,500.9,56,578.2,56C655,56,708,99.2,708,166.4c0,67.5-52.6,110.4-129.8,110.4
			S448,233.9,448,166.4z M631.9,166.4c0-38.4-21.3-58.9-53.7-58.9s-53.7,20.5-53.7,58.9s21.3,59.3,53.7,59.3
			S631.9,204.8,631.9,166.4L631.9,166.4z"/>
		<path class="st0" d="M682.6,294.7h17.2c13.4,0,18.7-4.1,18.7-16.4v-216H796V279c0,38.8-23.9,59.7-69,59.7h-44.4V294.7z M718.4,0
			H796v47.4h-77.6V0z"/>
		<path class="st0" d="M806.4,166.4C806.4,100,860.1,56,933.6,56c70.5,0,125.7,42.5,125.7,114.9v4.5H881.8
			c3,34.3,22.8,52.2,52.6,52.2c23.5,0,40.7-11.6,48.5-35.1h74.2c-13,51.5-59.3,84.3-123.8,84.3C859,276.8,806.4,233.1,806.4,166.4z
			 M884.8,141h97.7c-7.8-24.2-25.7-37.3-48.9-37.3C909,103.7,891.5,117.1,884.8,141z"/>
		<path class="st0" d="M1066.4,166.4c0-67.5,53.3-110.4,127.9-110.4c67.9,0,117.5,35.8,125.3,93.6h-73.1
			c-5.6-27.6-24.6-42.5-51.5-42.5c-31,0-52.2,20.9-52.2,58.9c0,39.2,21.3,59.7,52.2,59.7c27.2,0,47-15.7,51.8-45.1h72.7
			c-6.3,59.3-55.6,96.2-125.3,96.2C1119.4,276.8,1066.4,234.2,1066.4,166.4z"/>
		<path class="st0" d="M1372.2,212.2V110.8h-60.4V62.3h60.4V19.4h76.8v42.9h74.2v48.5h-74.2v89.5c0,13.8,8.6,20.1,28.3,20.1h45.9v50
			h-85.8C1392.8,270.4,1372.2,250.3,1372.2,212.2z"/>
		<path class="st0" d="M1665.4,89.5h-64.5V47.7c47.7-1.1,75.3-19,85.4-38.4h58.9v261.1h-79.8L1665.4,89.5z"/>
	</g>
</g>
</svg>
