<?xml version="1.0" encoding="utf-8"?>
<!-- Generator: Adobe Illustrator 26.0.3, SVG Export Plug-In . SVG Version: 6.00 Build 0)  -->
<svg version="1.1" id="레이어_1" xmlns="http://www.w3.org/2000/svg" xmlns:xlink="http://www.w3.org/1999/xlink" x="0px"
	 y="0px" viewBox="0 0 1523.3 659.4" style="enable-background:new 0 0 1523.3 659.4;" xml:space="preserve">
<style type="text/css">
	.st0{fill:#0C2BB7;}
</style>
<g id="Team_Project">
	<g>
		<path class="st0" d="M283.1,56H173.4V0h300.3v56H364.4v205.1h-81.3V56z"/>
		<path class="st0" d="M443.5,157c0-66.4,53.7-110.4,127.2-110.4c70.5,0,125.7,42.5,125.7,114.9v4.5H518.8
			c3,34.3,22.8,52.2,52.6,52.2c23.5,0,40.7-11.6,48.5-35.1h74.2c-13.1,51.5-59.3,84.3-123.8,84.3C496.1,267.4,443.5,223.8,443.5,157
			z M521.8,131.6h97.7c-7.8-24.2-25.7-37.3-48.9-37.3C546.1,94.4,528.5,107.8,521.8,131.6L521.8,131.6z"/>
		<path class="st0" d="M699.4,206.6c0-48.9,60-57.1,110.4-67.5c39.5-8.2,50.3-15.7,50.3-26.5c0-10.1-12.3-17.9-35.4-17.9
			c-27.6,0-44.8,13.4-49.6,33.2h-70.9c9.7-47.4,57.8-80.6,123.5-80.6c70.9,0,109.7,29.8,109.7,84.7v129.1h-76.8v-23.5
			c-19,18.6-46.2,28-79.1,28C731.8,265.6,699.4,241.7,699.4,206.6z M806,222.3c20.1,0,41.4-7.1,54.5-19.8V163
			c-10.1,5.6-24.6,8.6-40.3,12.7c-26.1,6.3-45.9,11.2-45.9,26.9C774.3,213.7,785.5,222.3,806,222.3z"/>
		<path class="st0" d="M952.3,53h78v26.8c17.2-20.1,41.4-31.7,71.2-31.7c31.7,0,57.1,13.4,70.5,36.2c19-23.1,46.2-36.2,80.2-36.2
			c51.1,0,85.4,31.3,85.4,81.3v131.7h-78V138.8c0-26.1-15.7-38.4-38-38.4c-14.5,0-28.4,5.6-38.8,15.7c0.4,4.5,0.7,9,0.7,13.4v131.7
			h-77.2V138.8c0-26.1-14.9-38.4-36.2-38.4c-16.8,0-31,7.1-39.9,18.3v142.5h-78L952.3,53z"/>
	</g>
	<g>
		<path class="st0" d="M0,330h177.6c63.8,0,103.7,32.1,103.7,85c0,51.9-39.5,84.7-103,84.7H80.9v91.4H0V330z M80.9,385.2v61.9h83.2
			c23.1,0,36.9-10.8,36.9-31s-13.8-31-36.9-31L80.9,385.2z"/>
		<path class="st0" d="M289.8,383h78.3v38c16.4-27.2,42.1-42.5,78.3-42.5h3.7v63c-7.2-1.5-14.6-2.3-22-2.2c-25,0-48.5,8.6-60,24.6
			v127.2h-78.3V383z"/>
		<path class="st0" d="M448,487c0-67.1,53-110.4,130.2-110.4C655,376.6,708,419.9,708,487c0,67.5-52.6,110.4-129.8,110.4
			S448,554.5,448,487z M631.9,487c0-38.4-21.3-58.9-53.7-58.9s-53.7,20.5-53.7,58.9s21.3,59.3,53.7,59.3S631.9,525.5,631.9,487
			L631.9,487z"/>
		<path class="st0" d="M682.6,615.3h17.2c13.4,0,18.7-4.1,18.7-16.4V383H796v216.7c0,38.8-23.9,59.7-69,59.7h-44.4V615.3z
			 M718.4,320.7H796V368h-77.6V320.7z"/>
		<path class="st0" d="M806.4,487c0-66.4,53.7-110.4,127.2-110.4c70.5,0,125.7,42.5,125.7,114.9v4.5H881.8
			c3,34.3,22.8,52.2,52.6,52.2c23.5,0,40.7-11.6,48.5-35.1h74.2c-13,51.5-59.3,84.3-123.8,84.3C859,597.4,806.4,553.8,806.4,487z
			 M884.8,461.6h97.7c-7.8-24.2-25.7-37.3-48.9-37.3C909,424.4,891.5,437.8,884.8,461.6L884.8,461.6z"/>
		<path class="st0" d="M1066.4,487c0-67.5,53.3-110.4,127.9-110.4c67.9,0,117.5,35.8,125.3,93.6h-73.1
			c-5.6-27.6-24.6-42.5-51.5-42.5c-31,0-52.2,20.9-52.2,58.9c0,39.2,21.3,59.7,52.2,59.7c27.2,0,47-15.7,51.8-45.1h72.7
			c-6.3,59.3-55.6,96.2-125.3,96.2C1119.4,597.4,1066.4,554.9,1066.4,487z"/>
		<path class="st0" d="M1372.2,532.9V431.5h-60.4V383h60.4v-42.9h76.8V383h74.2v48.5h-74.2V521c0,13.8,8.6,20.1,28.3,20.1h45.9v50
			h-85.8C1392.8,591.1,1372.2,571,1372.2,532.9z"/>
	</g>
</g>
</svg>
